<svg width="20" height="19" viewBox="0 0 20 19" fill="none" xmlns="http://www.w3.org/2000/svg">
<path d="M10 0.75C4.47656 0.75 0 4.38672 0 8.875C0 10.8125 0.835938 12.5859 2.22656 13.9805C1.73828 15.9492 0.105469 17.7031 0.0859375 17.7227C0 17.8125 -0.0234375 17.9453 0.0273438 18.0625C0.078125 18.1797 0.1875 18.25 0.3125 18.25C2.90234 18.25 4.84375 17.0078 5.80469 16.2422C7.08203 16.7227 8.5 17 10 17C15.5234 17 20 13.3633 20 8.875C20 4.38672 15.5234 0.75 10 0.75ZM5 10.125C4.30859 10.125 3.75 9.56641 3.75 8.875C3.75 8.18359 4.30859 7.625 5 7.625C5.69141 7.625 6.25 8.18359 6.25 8.875C6.25 9.56641 5.69141 10.125 5 10.125ZM10 10.125C9.30859 10.125 8.75 9.56641 8.75 8.875C8.75 8.18359 9.30859 7.625 10 7.625C10.6914 7.625 11.25 8.18359 11.25 8.875C11.25 9.56641 10.6914 10.125 10 10.125ZM15 10.125C14.3086 10.125 13.75 9.56641 13.75 8.875C13.75 8.18359 14.3086 7.625 15 7.625C15.6914 7.625 16.25 8.18359 16.25 8.875C16.25 9.56641 15.6914 10.125 15 10.125Z" fill="#1C1C1C"/>
</svg>
