<?xml version="1.0" encoding="UTF-8"?>
<svg version="1.1" viewBox="0 0 37.565 40.015" xmlns="http://www.w3.org/2000/svg">
 <g transform="translate(-93.205 -123)">
  <path transform="scale(.26458)" d="m421.86 464.87c-20.883.32834-37.586 17.448-37.401 38.333s17.19 37.705 38.076 37.663c-10.454-.0295-18.921-8.4991-18.946-18.953-.0256-10.454 8.3992-18.965 18.853-19.046 10.487-.12513 18.889-8.7234 18.772-19.21-.11679-10.487-8.7083-18.896-19.195-18.787-.0527.00048-.10546.001-.15819.002zm.3141 13.997c2.7612-.0308 5.0246 2.1828 5.0554 4.944.0308 2.7612-2.1828 5.0246-4.944 5.0554-2.7612.0308-5.0246-2.1828-5.0554-4.944-.0308-2.7613 2.1828-5.0246 4.944-5.0554z"/>
  <path transform="matrix(.13229 -.22914 .22914 .13229 -67.851 168.49)" d="m421.86 464.87c-20.883.32834-37.586 17.448-37.401 38.333s17.19 37.705 38.076 37.663c-10.454-.0295-18.921-8.4991-18.946-18.953-.0256-10.454 8.3992-18.965 18.853-19.046 10.487-.12513 18.889-8.7234 18.772-19.21-.11679-10.487-8.7083-18.896-19.195-18.787-.0527.00048-.10546.001-.15819.002zm.3141 13.997c2.7612-.0308 5.0246 2.1828 5.0554 4.944.0308 2.7612-2.1828 5.0246-4.944 5.0554-2.7612.0308-5.0246-2.1828-5.0554-4.944-.0308-2.7613 2.1828-5.0246 4.944-5.0554z" fill="#fff"/>
  <path transform="matrix(-.13229 -.22914 .22914 -.13229 44.137 311.49)" d="m421.86 464.87c-20.883.32834-37.586 17.448-37.401 38.333s17.19 37.705 38.076 37.663c-10.454-.0295-18.921-8.4991-18.946-18.953-.0256-10.454 8.3992-18.965 18.853-19.046 10.487-.12513 18.889-8.7234 18.772-19.21-.11679-10.487-8.7083-18.896-19.195-18.787-.0527.00048-.10546.001-.15819.002zm.3141 13.997c2.7612-.0308 5.0246 2.1828 5.0554 4.944.0308 2.7612-2.1828 5.0246-4.944 5.0554-2.7612.0308-5.0246-2.1828-5.0554-4.944-.0308-2.7613 2.1828-5.0246 4.944-5.0554z"/>
  <path transform="matrix(-.26458 0 0 -.26458 223.97 286.01)" d="m421.86 464.87c-20.883.32834-37.586 17.448-37.401 38.333s17.19 37.705 38.076 37.663c-10.454-.0295-18.921-8.4991-18.946-18.953-.0256-10.454 8.3992-18.965 18.853-19.046 10.487-.12513 18.889-8.7234 18.772-19.21-.11679-10.487-8.7083-18.896-19.195-18.787-.0527.00048-.10546.001-.15819.002zm.3141 13.997c2.7612-.0308 5.0246 2.1828 5.0554 4.944.0308 2.7612-2.1828 5.0246-4.944 5.0554-2.7612.0308-5.0246-2.1828-5.0554-4.944-.0308-2.7613 2.1828-5.0246 4.944-5.0554z" fill="#fff"/>
  <path transform="matrix(-.13229 .22914 -.22914 -.13229 291.83 117.52)" d="m421.86 464.87c-20.883.32834-37.586 17.448-37.401 38.333s17.19 37.705 38.076 37.663c-10.454-.0295-18.921-8.4991-18.946-18.953-.0256-10.454 8.3992-18.965 18.853-19.046 10.487-.12513 18.889-8.7234 18.772-19.21-.11679-10.487-8.7083-18.896-19.195-18.787-.0527.00048-.10546.001-.15819.002zm.3141 13.997c2.7612-.0308 5.0246 2.1828 5.0554 4.944.0308 2.7612-2.1828 5.0246-4.944 5.0554-2.7612.0308-5.0246-2.1828-5.0554-4.944-.0308-2.7613 2.1828-5.0246 4.944-5.0554z"/>
  <path transform="matrix(.13229 .22914 -.22914 .13229 179.84 -25.482)" d="m421.86 464.87c-20.883.32834-37.586 17.448-37.401 38.333s17.19 37.705 38.076 37.663c-10.454-.0295-18.921-8.4991-18.946-18.953-.0256-10.454 8.3992-18.965 18.853-19.046 10.487-.12513 18.889-8.7234 18.772-19.21-.11679-10.487-8.7083-18.896-19.195-18.787-.0527.00048-.10546.001-.15819.002zm.3141 13.997c2.7612-.0308 5.0246 2.1828 5.0554 4.944.0308 2.7612-2.1828 5.0246-4.944 5.0554-2.7612.0308-5.0246-2.1828-5.0554-4.944-.0308-2.7613 2.1828-5.0246 4.944-5.0554z" fill="#fff"/>
 </g>
</svg>
